<svg aria-hidden="true" style="position: absolute; width: 0; height: 0; overflow: hidden;" version="1.1" xmlns="http://www.w3.org/2000/svg" xmlns:xlink="http://www.w3.org/1999/xlink">
  <defs>


<symbol id="icon-Link-telegram" viewBox="0 0 32 32">
<path fill="#5fcdfc" style="fill: var(--color1, #5fcdfc)" d="M0.495 8.629c0.516-4.278 3.858-7.6 8.137-8.115 2.364-0.285 5.001-0.514 7.368-0.514s5.004 0.229 7.368 0.514c4.279 0.515 7.621 3.837 8.137 8.115 0.276 2.291 0.495 4.848 0.495 7.189 0 2.402-0.231 5.082-0.517 7.482-0.514 4.312-3.87 7.677-8.182 8.194-2.347 0.281-4.957 0.506-7.301 0.506s-4.954-0.225-7.301-0.506c-4.312-0.516-7.668-3.882-8.182-8.194-0.286-2.401-0.517-5.081-0.517-7.482 0-2.342 0.219-4.898 0.495-7.189z"></path>
<path fill="#fefffc" style="fill: var(--color2, #fefffc)" d="M9.052 15.47c0.034-0.017 0.067-0.032 0.1-0.047 0.571-0.261 1.149-0.506 1.727-0.751 0.031 0 0.083-0.036 0.113-0.047 0.045-0.019 0.089-0.037 0.134-0.057l0.257-0.109c0.172-0.072 0.343-0.145 0.514-0.217 0.343-0.145 0.685-0.29 1.028-0.435 0.685-0.29 1.372-0.58 2.057-0.87s1.372-0.58 2.057-0.87c0.685-0.29 1.372-0.58 2.057-0.87s1.372-0.58 2.057-0.87c0.152-0.065 0.317-0.162 0.481-0.19 0.137-0.024 0.271-0.071 0.409-0.097 0.262-0.049 0.551-0.069 0.802 0.038 0.087 0.037 0.167 0.090 0.233 0.156 0.318 0.311 0.274 0.822 0.206 1.26-0.469 3.052-0.938 6.105-1.408 9.157-0.064 0.419-0.152 0.878-0.486 1.143-0.283 0.224-0.685 0.249-1.035 0.154s-0.658-0.296-0.96-0.494c-1.254-0.821-2.508-1.642-3.762-2.462-0.298-0.195-0.63-0.45-0.626-0.803 0.002-0.213 0.13-0.403 0.262-0.572 1.090-1.405 2.662-2.371 3.831-3.711 0.165-0.189 0.295-0.53 0.068-0.639-0.135-0.065-0.29 0.023-0.413 0.107-1.546 1.062-3.091 2.124-4.637 3.185-0.504 0.346-1.033 0.703-1.641 0.788-0.544 0.077-1.091-0.073-1.618-0.226-0.441-0.128-0.882-0.26-1.32-0.395-0.233-0.072-0.474-0.149-0.654-0.311s-0.284-0.435-0.175-0.652c0.068-0.136 0.2-0.221 0.339-0.291l0.002 0.001z"></path>
</symbol>


  </defs>
</svg>
