<svg aria-hidden="true" style="position: absolute; width: 0; height: 0; overflow: hidden;" version="1.1" xmlns="http://www.w3.org/2000/svg" xmlns:xlink="http://www.w3.org/1999/xlink">
  <defs>

<symbol id="icon-hero-arrow-left" viewBox="0 0 17 32">
<path d="M16.354 2.698c0.144-0.153 0.257-0.332 0.332-0.528s0.11-0.405 0.104-0.615c-0.006-0.21-0.053-0.417-0.139-0.608s-0.209-0.365-0.361-0.509-0.332-0.257-0.529-0.332c-0.196-0.075-0.405-0.11-0.615-0.104s-0.417 0.053-0.608 0.139c-0.192 0.086-0.365 0.209-0.509 0.361l-13.592 14.391c-0.281 0.297-0.437 0.69-0.437 1.099s0.156 0.802 0.437 1.099l13.592 14.393c0.143 0.156 0.316 0.282 0.509 0.371s0.4 0.138 0.612 0.146c0.212 0.007 0.423-0.027 0.621-0.102s0.38-0.188 0.534-0.334 0.278-0.32 0.364-0.514c0.086-0.194 0.133-0.402 0.137-0.614s-0.033-0.422-0.11-0.62-0.193-0.377-0.341-0.529l-12.556-13.296 12.556-13.293z"></path>
</symbol>


  </defs>
</svg>
