<svg aria-hidden="true" style="position: absolute; width: 0; height: 0; overflow: hidden;" version="1.1" xmlns="http://www.w3.org/2000/svg" xmlns:xlink="http://www.w3.org/1999/xlink">
  <defs>

<symbol id="icon-hero-arrow-left" viewBox="0 0 17 32">
<path d="M16.354 2.698c0.144-0.153 0.257-0.332 0.332-0.528s0.11-0.405 0.104-0.615c-0.006-0.21-0.053-0.417-0.139-0.608s-0.209-0.365-0.361-0.509-0.332-0.257-0.529-0.332c-0.196-0.075-0.405-0.11-0.615-0.104s-0.417 0.053-0.608 0.139c-0.192 0.086-0.365 0.209-0.509 0.361l-13.592 14.391c-0.281 0.297-0.437 0.69-0.437 1.099s0.156 0.802 0.437 1.099l13.592 14.393c0.143 0.156 0.316 0.282 0.509 0.371s0.4 0.138 0.612 0.146c0.212 0.007 0.423-0.027 0.621-0.102s0.38-0.188 0.534-0.334 0.278-0.32 0.364-0.514c0.086-0.194 0.133-0.402 0.137-0.614s-0.033-0.422-0.11-0.62-0.193-0.377-0.341-0.529l-12.556-13.296 12.556-13.293z"></path>
</symbol>

<symbol id="icon-instagram" viewBox="0 0 32 32">
<path d="M8.889-0c-4.909 0-8.889 3.98-8.889 8.889v14.222c0 4.909 3.98 8.889 8.889 8.889h14.222c4.909 0 8.889-3.98 8.889-8.889v-14.222c0-4.909-3.98-8.889-8.889-8.889h-14.222zM26.667 3.556c0.981 0 1.778 0.796 1.778 1.778s-0.796 1.778-1.778 1.778c-0.981 0-1.778-0.796-1.778-1.778s0.796-1.778 1.778-1.778zM16 7.111c4.909 0 8.889 3.98 8.889 8.889s-3.98 8.889-8.889 8.889c-4.909 0-8.889-3.98-8.889-8.889s3.98-8.889 8.889-8.889zM16 10.667c-1.415 0-2.771 0.562-3.771 1.562s-1.562 2.357-1.562 3.771c0 1.414 0.562 2.771 1.562 3.771s2.357 1.562 3.771 1.562c1.414 0 2.771-0.562 3.771-1.562s1.562-2.357 1.562-3.771c0-1.415-0.562-2.771-1.562-3.771s-2.357-1.562-3.771-1.562z"></path>
</symbol>

<symbol id="icon-tiktok" viewBox="0 0 32 32">
<path fill="#f9f9f9" style="fill: var(--color1, #f9f9f9)" d="M8 0h16c4.418 0 8 3.582 8 8v16c0 4.418-3.582 8-8 8h-16c-4.418 0-8-3.582-8-8v-16c0-4.418 3.582-8 8-8z"></path>
<path fill="#f4a600" style="fill: var(--color2, #f4a600)" d="M27.143 10.333c-0.006-0.176-0.077-0.343-0.199-0.47s-0.286-0.205-0.461-0.218c-1.169-0.107-2.285-0.54-3.22-1.251-0.694-0.526-1.275-1.187-1.707-1.943s-0.708-1.592-0.809-2.457c-0.014-0.175-0.092-0.34-0.219-0.461s-0.294-0.193-0.47-0.2h-2.811c-0.092-0-0.182 0.018-0.267 0.054s-0.161 0.087-0.225 0.153c-0.064 0.065-0.115 0.143-0.148 0.228s-0.050 0.176-0.049 0.268v16.787c-0.005 0.507-0.113 1.007-0.317 1.47s-0.502 0.88-0.873 1.225c-0.371 0.345-0.809 0.61-1.286 0.78s-0.984 0.241-1.489 0.208c-0.577-0.032-1.139-0.197-1.642-0.483s-0.933-0.683-1.257-1.162c-0.324-0.479-0.533-1.026-0.61-1.599s-0.022-1.156 0.163-1.704c0.281-0.811 0.83-1.501 1.556-1.959s1.586-0.655 2.439-0.559c0.094 0.010 0.19-0 0.28-0.030s0.173-0.078 0.243-0.141 0.126-0.141 0.164-0.228c0.038-0.087 0.058-0.18 0.057-0.275v-3.289c0 0-1.195-0.084-1.603-0.084-1.045-0.005-2.079 0.224-3.025 0.669s-1.781 1.096-2.443 1.905c-0.881 0.949-1.509 2.105-1.827 3.36-0.367 1.481-0.292 3.036 0.215 4.475s1.424 2.697 2.638 3.621c1.389 1.071 3.094 1.65 4.848 1.645 0.401 0 0.799-0.028 1.195-0.084 1.67-0.248 3.217-1.022 4.417-2.209 0.733-0.719 1.317-1.576 1.717-2.522s0.61-1.961 0.616-2.988v-9.249c1.623 1.253 3.579 2.001 5.624 2.151 0.095 0.006 0.19-0.008 0.28-0.041s0.171-0.084 0.24-0.15 0.123-0.146 0.159-0.234c0.036-0.088 0.054-0.183 0.052-0.278v-2.727l0.055-0.001z"></path>
</symbol>

<symbol id="icon-facebook" viewBox="0 0 32 32">
<path d="M24.59 0h-17.214c-0.976-0.001-1.942 0.192-2.842 0.566s-1.718 0.924-2.406 1.616c-0.685 0.69-1.225 1.51-1.59 2.411s-0.547 1.865-0.537 2.837v17.139c-0.012 0.972 0.17 1.937 0.535 2.838s0.906 1.72 1.591 2.41c0.687 0.692 1.504 1.241 2.405 1.616s1.866 0.567 2.841 0.566h7.816v-11.431h-2.987c-0.185-0.001-0.362-0.075-0.493-0.205s-0.206-0.307-0.208-0.492v-3.669c-0-0.094 0.018-0.188 0.054-0.275s0.089-0.166 0.156-0.233c0.067-0.067 0.146-0.119 0.233-0.155s0.181-0.054 0.275-0.053h2.969v-3.577c-0.083-0.845 0.020-1.699 0.302-2.5s0.737-1.531 1.332-2.137c0.596-0.609 1.317-1.081 2.114-1.383s1.65-0.426 2.499-0.365h3.042c0.093 0.001 0.185 0.020 0.271 0.056s0.163 0.089 0.228 0.156 0.116 0.145 0.151 0.232c0.035 0.086 0.052 0.179 0.050 0.272v3.102c0 0.092-0.018 0.183-0.053 0.267s-0.087 0.162-0.152 0.226c-0.065 0.065-0.142 0.116-0.227 0.15s-0.176 0.052-0.268 0.052h-1.843c-2.028 0-2.416 0.955-2.416 2.348v3.084h4.424c0.1-0.001 0.199 0.020 0.29 0.061s0.172 0.1 0.239 0.175c0.066 0.075 0.116 0.162 0.146 0.258s0.039 0.196 0.027 0.295l-0.443 3.671c-0.018 0.173-0.1 0.332-0.229 0.448s-0.298 0.178-0.471 0.176h-3.963v11.431h4.388c0.975 0.001 1.941-0.192 2.842-0.566s1.718-0.924 2.405-1.616c0.685-0.69 1.226-1.51 1.59-2.411s0.547-1.866 0.536-2.838v-17.119c0.013-0.975-0.17-1.944-0.537-2.847s-0.912-1.724-1.602-2.414c-0.691-0.693-1.513-1.241-2.418-1.614s-1.875-0.561-2.853-0.556z"></path>
</symbol>

<symbol id="icon-youtube" viewBox="0 0 32 32">
<path fill="#f9f9f9" style="fill: var(--color1, #f9f9f9)" d="M8 0h16c4.418 0 8 3.582 8 8v16c0 4.418-3.582 8-8 8h-16c-4.418 0-8-3.582-8-8v-16c0-4.418 3.582-8 8-8z"></path>
<path fill="#f4a600" style="fill: var(--color2, #f4a600)" d="M3.512 20.386c0.244 1.735 0.367 2.602 1.261 3.488s1.807 1.005 3.632 1.243c1.964 0.256 4.56 0.483 7.595 0.483s5.63-0.227 7.595-0.483c1.825-0.238 2.737-0.357 3.632-1.243s1.017-1.753 1.261-3.488c0.178-1.26 0.312-2.754 0.312-4.386s-0.135-3.126-0.312-4.386c-0.244-1.735-0.367-2.602-1.261-3.488s-1.807-1.005-3.632-1.243c-1.964-0.256-4.56-0.483-7.595-0.483s-5.63 0.227-7.595 0.483c-1.825 0.238-2.737 0.357-3.632 1.243s-1.017 1.753-1.261 3.488c-0.178 1.26-0.312 2.754-0.312 4.386s0.135 3.126 0.312 4.386zM14.101 12.534l4.452 2.74c0.391 0.241 0.586 0.361 0.653 0.515 0.058 0.135 0.058 0.288 0 0.423-0.067 0.154-0.262 0.275-0.653 0.515l-4.452 2.74c-0.425 0.262-0.637 0.392-0.813 0.377-0.153-0.013-0.292-0.091-0.383-0.214-0.104-0.141-0.104-0.391-0.104-0.89v-5.479c0-0.499 0-0.748 0.104-0.89 0.091-0.123 0.231-0.201 0.383-0.214 0.175-0.015 0.388 0.116 0.813 0.377z"></path>
</symbol>

<symbol id="icon-watsapp" viewBox="0 0 29 32">
<path d="M22.157 0.824l0.53 0.119c1.384 0.308 2.655 0.994 3.672 1.982s1.74 2.239 2.088 3.613c1.244 4.912 1.244 10.057 0 14.969-0.348 1.374-1.071 2.625-2.087 3.613s-2.288 1.674-3.671 1.983l-0.531 0.117c-3.133 0.698-6.349 0.955-9.553 0.761l-4.269 3.819c-0.104 0.093-0.232 0.156-0.369 0.183s-0.279 0.017-0.411-0.029c-0.132-0.046-0.249-0.127-0.339-0.234s-0.15-0.236-0.173-0.374l-0.727-4.339c-1.303-0.36-2.487-1.059-3.433-2.026s-1.618-2.166-1.95-3.476c-1.244-4.912-1.244-10.057 0-14.969 0.348-1.374 1.070-2.625 2.087-3.613s2.288-1.674 3.671-1.983l0.53-0.117c4.918-1.099 10.017-1.099 14.935 0zM8.541 6.411c-0.29-0.043-0.587 0.016-0.839 0.166h-0.022c-0.586 0.344-1.114 0.777-1.565 1.286-0.375 0.433-0.578 0.871-0.631 1.293-0.031 0.25-0.009 0.503 0.064 0.742l0.028 0.016c0.422 1.239 0.972 2.432 1.644 3.554 0.867 1.576 1.933 3.034 3.173 4.338l0.037 0.053 0.059 0.044 0.036 0.042 0.044 0.038c1.308 1.243 2.769 2.315 4.348 3.189 1.805 0.983 2.901 1.447 3.559 1.641v0.009c0.192 0.059 0.367 0.086 0.544 0.086 0.561-0.040 1.091-0.268 1.507-0.647 0.508-0.45 0.938-0.98 1.272-1.569v-0.011c0.314-0.594 0.208-1.154-0.245-1.533-0.91-0.797-1.894-1.503-2.94-2.11-0.7-0.38-1.411-0.15-1.699 0.234l-0.614 0.775c-0.316 0.384-0.888 0.331-0.888 0.331l-0.016 0.009c-4.269-1.089-5.408-5.411-5.408-5.411s-0.053-0.588 0.342-0.888l0.769-0.619c0.369-0.3 0.625-1.010 0.23-1.71-0.606-1.045-1.311-2.029-2.105-2.939-0.174-0.214-0.417-0.359-0.688-0.411zM15.753 4.532c-0.207 0-0.406 0.082-0.553 0.229s-0.229 0.345-0.229 0.553c0 0.207 0.082 0.406 0.229 0.553s0.345 0.229 0.553 0.229c1.977 0 3.618 0.646 4.917 1.883 0.667 0.677 1.188 1.479 1.529 2.357 0.342 0.88 0.499 1.819 0.458 2.76-0.004 0.103 0.012 0.205 0.047 0.302s0.089 0.185 0.159 0.261c0.14 0.153 0.336 0.243 0.543 0.252s0.41-0.065 0.562-0.206c0.153-0.14 0.243-0.336 0.252-0.543 0.047-1.157-0.146-2.312-0.564-3.392-0.421-1.085-1.061-2.072-1.882-2.898l-0.016-0.016c-1.611-1.54-3.651-2.324-6.005-2.324zM15.7 7.102c-0.207 0-0.406 0.082-0.553 0.229s-0.229 0.345-0.229 0.553c0 0.207 0.082 0.406 0.229 0.553s0.345 0.229 0.553 0.229h0.027c1.426 0.102 2.463 0.577 3.19 1.357 0.746 0.803 1.132 1.802 1.102 3.037-0.005 0.207 0.073 0.408 0.216 0.558s0.34 0.237 0.547 0.242c0.207 0.005 0.408-0.073 0.558-0.216s0.237-0.34 0.242-0.547c0.038-1.621-0.485-3.020-1.519-4.136v-0.003c-1.058-1.135-2.51-1.735-4.258-1.852l-0.027-0.003-0.078 0.002zM15.67 9.72c-0.105-0.009-0.21 0.003-0.31 0.035s-0.192 0.085-0.271 0.153c-0.079 0.069-0.144 0.153-0.19 0.247s-0.073 0.197-0.078 0.302c-0.005 0.105 0.010 0.21 0.046 0.308s0.091 0.189 0.163 0.266c0.072 0.077 0.158 0.138 0.254 0.181s0.2 0.065 0.304 0.067c0.653 0.034 1.071 0.231 1.333 0.495 0.264 0.266 0.461 0.692 0.497 1.36 0.002 0.105 0.025 0.208 0.068 0.304s0.104 0.182 0.181 0.253c0.077 0.071 0.167 0.127 0.266 0.163s0.203 0.051 0.308 0.046 0.207-0.032 0.302-0.078c0.094-0.046 0.178-0.111 0.247-0.19s0.121-0.171 0.153-0.271c0.032-0.1 0.044-0.205 0.035-0.31-0.050-0.938-0.344-1.766-0.946-2.376-0.605-0.61-1.429-0.907-2.363-0.957z"></path>
</symbol>

<symbol id="icon-telegram" viewBox="0 0 32 32">
<path d="M32 16c0 8.836-7.164 16-16 16s-16-7.164-16-16c0-8.837 7.163-16 16-16s16 7.163 16 16zM16.573 11.812c-1.556 0.647-4.667 1.987-9.331 4.019-0.757 0.301-1.154 0.596-1.19 0.884-0.061 0.487 0.549 0.679 1.379 0.94 0.113 0.036 0.23 0.072 0.35 0.111 0.817 0.266 1.916 0.576 2.487 0.589 0.518 0.011 1.097-0.202 1.735-0.641 4.358-2.942 6.608-4.429 6.749-4.461 0.1-0.023 0.238-0.051 0.331 0.032s0.084 0.241 0.074 0.283c-0.060 0.258-2.454 2.483-3.693 3.634-0.386 0.359-0.66 0.614-0.716 0.672-0.125 0.13-0.253 0.253-0.376 0.372-0.759 0.732-1.328 1.28 0.031 2.176 0.653 0.431 1.176 0.787 1.698 1.142 0.57 0.388 1.138 0.775 1.873 1.257 0.187 0.123 0.366 0.25 0.54 0.374 0.663 0.473 1.259 0.897 1.994 0.829 0.428-0.039 0.869-0.441 1.093-1.64 0.53-2.834 1.572-8.973 1.813-11.503 0.021-0.222-0.005-0.505-0.027-0.63s-0.066-0.302-0.228-0.433c-0.192-0.156-0.488-0.188-0.62-0.186-0.602 0.011-1.525 0.332-5.968 2.18z"></path>
</symbol>

<symbol id="icon-search" viewBox="0 0 32 32">
<path d="M13.474 26.947c2.49-0 4.921-0.695 7.024-1.992 0.725-0.447 1.675-0.399 2.277 0.203l5.159 5.159c0.658 0.658 1.724 0.658 2.381 0s0.658-1.724 0-2.381l-5.159-5.159c-0.602-0.602-0.65-1.553-0.203-2.278 1.298-2.104 1.993-4.535 1.993-7.026 0-7.429-6.045-13.474-13.474-13.474s-13.474 6.045-13.474 13.474c0 7.429 6.045 13.474 13.474 13.474zM13.474 3.368c5.573 0 10.105 4.532 10.105 10.105s-4.532 10.105-10.105 10.105c-5.573 0-10.105-4.532-10.105-10.105s4.532-10.105 10.105-10.105z"></path>
</symbol>

<symbol id="icon-search-mob" viewBox="0 0 32 32">
<path d="M20.162 22.113l9.481 9.481c0.539 0.539 1.412 0.539 1.951 0s0.539-1.412 0-1.951l-9.481-9.481c3.904-4.874 3.596-12.008-0.922-16.526-4.848-4.848-12.708-4.848-17.555 0s-4.848 12.708 0 17.555c4.518 4.518 11.653 4.825 16.526 0.922zM5.586 19.241c-3.771-3.77-3.771-9.884 0-13.654s9.884-3.771 13.654 0c3.768 3.768 3.771 9.875 0.008 13.646-0.003 0.003-0.006 0.006-0.008 0.008s-0.006 0.006-0.008 0.008c-3.771 3.762-9.878 3.76-13.646-0.008z"></path>
</symbol>

<symbol id="icon-button-mob" viewBox="0 0 43 32">
<path d="M2.285-0c-0.606 0-1.187 0.241-1.616 0.669s-0.669 1.010-0.669 1.616c0 0.606 0.241 1.187 0.669 1.616s1.010 0.669 1.616 0.669h38.852c0.606 0 1.188-0.241 1.616-0.669s0.669-1.010 0.669-1.616c0-0.606-0.241-1.187-0.669-1.616s-1.010-0.669-1.616-0.669h-38.852zM0 15.998c0-0.606 0.241-1.187 0.669-1.616s1.010-0.669 1.616-0.669h38.852c0.606 0 1.188 0.241 1.616 0.669s0.669 1.010 0.669 1.616c0 0.606-0.241 1.187-0.669 1.616s-1.010 0.669-1.616 0.669h-38.852c-0.606 0-1.187-0.241-1.616-0.669s-0.669-1.010-0.669-1.616zM0 29.712c0-0.606 0.241-1.188 0.669-1.616s1.010-0.669 1.616-0.669h38.852c0.606 0 1.188 0.241 1.616 0.669s0.669 1.010 0.669 1.616c0 0.606-0.241 1.188-0.669 1.616s-1.010 0.669-1.616 0.669h-38.852c-0.606 0-1.187-0.241-1.616-0.669s-0.669-1.010-0.669-1.616z"></path>
</symbol>


  </defs>
</svg>
